<svg width="35" height="35" viewBox="0 0 35 35" fill="none" xmlns="../../../www.w3.org/2000/svg">
<g clip-path="url(#clip0_1_272)">
<path d="M31.3133 14.3204V28.4295C31.3133 28.8037 31.164 29.1626 30.8983 29.4271C30.6326 29.6917 30.2722 29.8404 29.8964 29.8404H4.3934C4.01763 29.8404 3.65725 29.6917 3.39154 29.4271C3.12584 29.1626 2.97656 28.8037 2.97656 28.4295V14.3204H31.3133ZM31.3133 11.4985H2.97656V5.85488C2.97656 5.48068 3.12584 5.12181 3.39154 4.85722C3.65725 4.59262 4.01763 4.44397 4.3934 4.44397H29.8964C30.2722 4.44397 30.6326 4.59262 30.8983 4.85722C31.164 5.12181 31.3133 5.48068 31.3133 5.85488V11.4985ZM21.3954 22.7858V25.6077H27.0628V22.7858H21.3954Z" fill="#2C86FF"/>
</g>
<defs>
<clipPath id="clip0_1_272">
<rect x="0.142578" y="0.210815" width="34.0041" height="33.8619" rx="4.85772" fill="white"/>
</clipPath>
</defs>
</svg>
