<svg width="43" height="43" viewBox="0 0 43 43" fill="none" xmlns="../../../www.w3.org/2000/svg">
<path d="M1.22772 41.9028H0.52869C0.266554 41.9028 0.0917969 42.0776 0.0917969 42.3397C0.0917969 42.6019 0.266554 42.7766 0.52869 42.7766H1.22772C1.48986 42.7766 1.66461 42.6019 1.66461 42.3397C1.66461 42.0776 1.48986 41.9028 1.22772 41.9028Z" fill="#68C985"/>
<path d="M42.4703 41.9028H41.3344C41.0722 41.9028 40.8975 42.0776 40.8975 42.3397C40.8975 42.6019 41.0722 42.7766 41.3344 42.7766H42.4703C42.7324 42.7766 42.9072 42.6019 42.9072 42.3397C42.9072 42.0776 42.6887 41.9028 42.4703 41.9028Z" fill="#68C985"/>
<path d="M38.4512 36.4418C39.8493 36.4418 40.9852 35.3059 40.9852 33.9079V11.67C40.9852 10.2719 39.8493 9.09233 38.4512 9.09233H35.3493V8.04379H40.7231C40.9852 8.04379 41.16 7.86903 41.16 7.6069V5.72826C41.16 5.46612 40.9852 5.29136 40.7231 5.29136C40.4609 5.29136 40.2862 5.46612 40.2862 5.72826V7.17H35.3493V3.54379C35.3493 2.23311 36.3541 1.14088 37.6648 1.09719H37.7085H37.7959C39.1503 1.09719 40.2425 2.18942 40.2425 3.54379V3.80593C40.2425 4.06806 40.4172 4.24282 40.6794 4.24282C40.9415 4.24282 41.1163 4.06806 41.1163 3.80593V3.58748C41.1163 1.75253 39.6308 0.26709 37.7959 0.26709C37.7522 0.26709 37.7085 0.26709 37.6648 0.26709C37.6648 0.26709 37.6648 0.26709 37.6211 0.26709H12.1939C10.359 0.26709 8.87355 1.75253 8.87355 3.58748V9.17971H5.77161C4.37355 9.17971 3.23763 10.3156 3.23763 11.7574V13.3302C3.23763 13.5923 3.41238 13.7671 3.67452 13.7671C3.93666 13.7671 4.11141 13.5923 4.11141 13.3302V11.67C4.11141 10.7525 4.85413 9.96612 5.77161 9.96612H8.87355V11.1894H5.77161C5.68423 11.1894 5.59685 11.2331 5.50947 11.2768C5.3784 11.3642 5.33472 11.4952 5.33472 11.67V30.8933C5.33472 31.1554 5.50947 31.3302 5.77161 31.3302H38.4512C38.7134 31.3302 38.8881 31.1554 38.8881 30.8933C38.8881 10.7525 38.8881 11.7137 38.8881 11.6263C38.8881 11.4079 38.6697 11.1894 38.4512 11.1894H35.3493V9.96612H38.4512C39.3687 9.96612 40.1114 10.7088 40.1114 11.67V33.9079C40.1114 34.8253 39.3687 35.5681 38.4512 35.5681C18.791 35.5681 9.57258 35.5681 5.77161 35.5681C4.85413 35.5681 4.11141 34.8253 4.11141 33.9079V15.1651C4.11141 14.903 3.93666 14.7283 3.67452 14.7283C3.41238 14.7283 3.23763 14.903 3.23763 15.1651V33.9079C3.23763 35.3059 4.37355 36.4418 5.77161 36.4418H15.7328V39.0632C14.3347 39.3253 13.2862 40.4613 13.1114 41.8593H3.06287C2.80073 41.8593 2.62598 42.0341 2.62598 42.2962C2.62598 42.5584 2.80073 42.7331 3.06287 42.7331H39.5872C39.8493 42.7331 40.024 42.5584 40.024 42.2962C40.024 42.0341 39.8493 41.8593 39.5872 41.8593H30.7182C30.5435 40.4613 29.4512 39.3253 28.0969 39.0632V36.4418H38.4512ZM9.74734 3.54379C9.74734 2.18942 10.8396 1.09719 12.1939 1.09719H35.5677C34.9124 1.70884 34.4755 2.58262 34.4755 3.54379V30.4127H9.74734V3.54379ZM6.2085 12.0632H8.87355V30.4127H6.2085V12.0632ZM38.0143 12.0632V30.4127H35.3493V12.0632H38.0143ZM29.8444 41.903H13.9852C14.2036 40.7671 15.1648 39.937 16.3881 39.937H27.4852C28.6648 39.8933 29.626 40.7671 29.8444 41.903ZM27.2231 39.0195H16.6066V36.4418H27.2231V39.0195Z" fill="#68C985"/>
<path d="M23.5089 33.6021C23.5089 32.7283 22.8099 32.0293 21.9361 32.0293C21.0623 32.0293 20.3633 32.7283 20.3633 33.6021C20.3633 34.4759 21.0623 35.1749 21.9361 35.1749C22.8099 35.1749 23.5089 34.4759 23.5089 33.6021ZM21.2371 33.6021C21.2371 33.2089 21.5429 32.9031 21.9361 32.9031C22.3293 32.9031 22.6351 33.2089 22.6351 33.6021C22.6351 33.9953 22.3293 34.3011 21.9361 34.3011C21.5429 34.3011 21.2371 33.9953 21.2371 33.6021Z" fill="#68C985"/>
<path d="M32.0287 3.36914H12.3685C12.1064 3.36914 11.9316 3.5439 11.9316 3.80603C11.9316 4.06817 12.1064 4.24293 12.3685 4.24293H32.0287C32.2909 4.24293 32.4656 4.06817 32.4656 3.80603C32.4656 3.5439 32.2472 3.36914 32.0287 3.36914Z" fill="#68C985"/>
<path d="M32.0287 5.33496H12.3685C12.1064 5.33496 11.9316 5.50972 11.9316 5.77185C11.9316 6.03399 12.1064 6.20875 12.3685 6.20875H32.0287C32.2909 6.20875 32.4656 6.03399 32.4656 5.77185C32.4656 5.50972 32.2472 5.33496 32.0287 5.33496Z" fill="#68C985"/>
<path d="M14.8588 13.4615C16.5627 13.4615 17.9607 12.0634 17.9607 10.3595C17.9607 8.65564 16.5627 7.30127 14.8588 7.30127C13.1549 7.30127 11.7568 8.69933 11.7568 10.4032C11.7568 12.1071 13.1549 13.4615 14.8588 13.4615ZM14.8588 8.17506C16.0821 8.17506 17.0869 9.17991 17.0869 10.4032C17.0869 11.6265 16.0821 12.6314 14.8588 12.6314C13.6355 12.6314 12.6306 11.6265 12.6306 10.4032C12.6306 9.17991 13.6355 8.17506 14.8588 8.17506Z" fill="#68C985"/>
<path d="M31.8975 8.56813C32.1596 8.56813 32.3344 8.39337 32.3344 8.13123C32.3344 7.86909 32.1596 7.69434 31.8975 7.69434H25.9994C25.7373 7.69434 25.5625 7.86909 25.5625 8.13123C25.5625 8.39337 25.7373 8.56813 25.9994 8.56813H31.8975Z" fill="#68C985"/>
<path d="M20.3203 10.578C20.3203 10.8401 20.4951 11.0149 20.7572 11.0149H31.898C32.1601 11.0149 32.3349 10.8401 32.3349 10.578C32.3349 10.3159 32.1601 10.1411 31.898 10.1411H20.7572C20.4951 10.1411 20.3203 10.3596 20.3203 10.578Z" fill="#68C985"/>
<path d="M31.898 13.4612C32.1601 13.4612 32.3349 13.2864 32.3349 13.0243C32.3349 12.7622 32.1601 12.5874 31.898 12.5874H20.7572C20.4951 12.5874 20.3203 12.7622 20.3203 13.0243C20.3203 13.2864 20.4951 13.4612 20.7572 13.4612H31.898Z" fill="#68C985"/>
<path d="M14.0284 11.4518C14.2031 11.6265 14.4653 11.6265 14.64 11.4518L16.2129 9.87895C16.3876 9.70419 16.3876 9.44206 16.2129 9.2673C16.0381 9.09254 15.776 9.09254 15.6012 9.2673L14.3342 10.5343L14.1158 10.3158C13.941 10.1411 13.6789 10.1411 13.5041 10.3158C13.3294 10.4906 13.3294 10.7527 13.5041 10.9275L14.0284 11.4518Z" fill="#68C985"/>
<path d="M14.9896 14.5537C13.2858 14.5537 11.8877 15.9518 11.8877 17.6557C11.8877 19.3595 13.2858 20.7576 14.9896 20.7576C16.6935 20.7576 18.0916 19.3595 18.0916 17.6557C18.0916 15.9518 16.6935 14.5537 14.9896 14.5537ZM14.9896 19.8401C13.7663 19.8401 12.7615 18.8353 12.7615 17.612C12.7615 16.3887 13.7663 15.3838 14.9896 15.3838C16.2129 15.3838 17.2178 16.3887 17.2178 17.612C17.2178 18.879 16.2129 19.8401 14.9896 19.8401Z" fill="#68C985"/>
<path d="M32.0283 14.9468H26.1303C25.8681 14.9468 25.6934 15.1215 25.6934 15.3837C25.6934 15.6458 25.8681 15.8206 26.1303 15.8206H32.0283C32.2904 15.8206 32.4652 15.6458 32.4652 15.3837C32.4652 15.1215 32.2467 14.9468 32.0283 14.9468Z" fill="#68C985"/>
<path d="M32.0289 17.3931H20.8881C20.6259 17.3931 20.4512 17.5678 20.4512 17.83C20.4512 18.0921 20.6259 18.2668 20.8881 18.2668H32.0289C32.291 18.2668 32.4657 18.0921 32.4657 17.83C32.4657 17.5678 32.2473 17.3931 32.0289 17.3931Z" fill="#68C985"/>
<path d="M32.0289 19.8398H20.8881C20.6259 19.8398 20.4512 20.0146 20.4512 20.2767C20.4512 20.5389 20.6259 20.7136 20.8881 20.7136H32.0289C32.291 20.7136 32.4657 20.5389 32.4657 20.2767C32.4657 20.0146 32.2473 19.8398 32.0289 19.8398Z" fill="#68C985"/>
<path d="M14.9896 22.0244C13.2858 22.0244 11.8877 23.4225 11.8877 25.1263C11.8877 26.8302 13.2858 28.2283 14.9896 28.2283C16.6935 28.2283 18.0916 26.8302 18.0916 25.1263C18.0916 23.4225 16.6935 22.0244 14.9896 22.0244ZM14.9896 27.3108C13.7663 27.3108 12.7615 26.306 12.7615 25.0827C12.7615 23.8594 13.7663 22.8545 14.9896 22.8545C16.2129 22.8545 17.2178 23.8594 17.2178 25.0827C17.2178 26.3496 16.2129 27.3108 14.9896 27.3108Z" fill="#68C985"/>
<path d="M32.0283 22.4175H26.1303C25.8681 22.4175 25.6934 22.5922 25.6934 22.8544C25.6934 23.1165 25.8681 23.2913 26.1303 23.2913H32.0283C32.2904 23.2913 32.4652 23.1165 32.4652 22.8544C32.4652 22.5922 32.2467 22.4175 32.0283 22.4175Z" fill="#68C985"/>
<path d="M32.0289 24.8643H20.8881C20.6259 24.8643 20.4512 25.039 20.4512 25.3012C20.4512 25.5633 20.6259 25.738 20.8881 25.738H32.0289C32.291 25.738 32.4657 25.5633 32.4657 25.3012C32.4657 25.039 32.2473 24.8643 32.0289 24.8643Z" fill="#68C985"/>
<path d="M32.0289 27.3105H20.8881C20.6259 27.3105 20.4512 27.4853 20.4512 27.7474C20.4512 28.0096 20.6259 28.1843 20.8881 28.1843H32.0289C32.291 28.1843 32.4657 28.0096 32.4657 27.7474C32.4657 27.4853 32.2473 27.3105 32.0289 27.3105Z" fill="#68C985"/>
<path d="M15.776 16.5632L14.509 17.8301L14.2906 17.6117C14.1158 17.4369 13.8537 17.4369 13.6789 17.6117C13.5042 17.7865 13.5042 18.0486 13.6789 18.2233L14.2469 18.7913C14.3343 18.8787 14.4653 18.9224 14.5527 18.9224C14.6401 18.9224 14.7712 18.8787 14.8585 18.7913L16.4313 17.2185C16.6061 17.0437 16.6061 16.7816 16.4313 16.6068C16.2566 16.4321 15.9071 16.4321 15.776 16.5632Z" fill="#68C985"/>
</svg>
