<svg width="28" height="26" viewBox="0 0 28 26" fill="none" xmlns="../../../www.w3.org/2000/svg">
<path d="M23.8984 25.3047H4.10156C2.7446 25.3047 1.64062 24.2007 1.64062 22.8438V10.9204C1.64062 10.6549 1.7692 10.4057 1.98565 10.2518L13.5247 2.04869C13.8093 1.8464 14.1908 1.8464 14.4753 2.04869L26.0144 10.2518C26.2309 10.4057 26.3594 10.6549 26.3594 10.9204V22.8438C26.3594 24.2007 25.2554 25.3047 23.8984 25.3047Z" fill="#4175DF"/>
<path d="M23.8984 25.3047C25.2554 25.3047 26.3594 24.2007 26.3594 22.8438V10.9204C26.3594 10.6548 26.2308 10.4057 26.0144 10.2518L14.4753 2.04868C14.333 1.9475 14.1665 1.89697 14 1.89697V25.3047H23.8984Z" fill="#4254B6"/>
<path d="M6.97096 8.69775C6.97096 10.6208 5.41062 12.1795 3.48551 12.1795C1.5604 12.1795 0 10.6208 0 8.69775H6.97096Z" fill="#2C86FF"/>
<path d="M13.9997 8.69775C13.9997 10.6208 12.3813 12.1795 10.4562 12.1795C8.53099 12.1795 6.9707 10.6209 6.9707 8.69775H13.9997Z" fill="#192C69"/>
<path d="M28.0003 8.69781H21.0293L19.2285 0.695557H23.4378C24.0977 0.695557 24.7013 1.06809 24.9964 1.65767L28.0003 8.69781Z" fill="#4254B6"/>
<path d="M21.029 8.69781H14V0.695557H19.2282L21.029 8.69781Z" fill="#2C86FF"/>
<path d="M13.9997 0.695557V8.69781H6.9707L8.71343 0.695557H13.9997Z" fill="#4254B6"/>
<path d="M8.71369 0.695557L6.97096 8.69781H0L3.00388 1.65773C3.29897 1.06814 3.90255 0.695611 4.56247 0.695611H8.71369V0.695557Z" fill="#80AEF8"/>
<path d="M21.029 8.69775C21.029 10.6208 19.4687 12.1795 17.5436 12.1795C15.6185 12.1795 14 10.6208 14 8.69775H21.029Z" fill="#4175DF"/>
<path d="M28.0002 8.69775C28.0002 10.6208 26.4399 12.1795 24.5147 12.1795C22.5896 12.1795 21.0293 10.6209 21.0293 8.69775H28.0002Z" fill="#192C69"/>
</svg>
