<svg width="43" height="39" viewBox="0 0 43 39" fill="none" xmlns="../../../www.w3.org/2000/svg">
<path d="M39.5 37.9287H35.8571C36.1571 37.5859 36.3286 37.1145 36.3286 36.643V34.4145C36.3286 34.2002 36.1571 34.0287 35.9429 34.0287C35.7286 34.0287 35.5571 34.2002 35.5571 34.4145V36.643C35.5571 37.3287 35 37.9287 34.2714 37.9287H26.2571C25.5714 37.9287 24.9714 37.3716 24.9714 36.643V26.8287H35.5143V32.4002C35.5143 32.6145 35.6857 32.7859 35.9 32.7859C36.1143 32.7859 36.2857 32.6145 36.2857 32.4002V32.143C36.9714 31.7145 37.4429 30.943 37.4429 30.0859V27.1287V24.1287C37.4429 23.9145 37.2714 23.743 37.0571 23.743C36.8429 23.743 36.6714 23.9145 36.6714 24.1287V26.743H36.2857C36.2857 26.3573 35.9429 26.0573 35.5571 26.0573H35.4286V9.72875C35.9 9.64304 36.3286 9.38589 36.6714 9.04304V21.3002C36.6714 21.5145 36.8429 21.6859 37.0571 21.6859C37.2714 21.6859 37.4429 21.5145 37.4429 21.3002V7.11447V6.25732V2.40018C37.4429 1.24304 36.5 0.257324 35.3429 0.257324H2.6C1.44286 0.257324 0.5 1.20018 0.5 2.40018V11.5288C0.5 11.743 0.671429 11.9145 0.885714 11.9145C1.1 11.9145 1.27143 11.743 1.27143 11.5288V8.61446C1.57143 9.04304 2 9.42875 2.51429 9.60018V26.7002H1.31429V14.1859C1.31429 13.9716 1.14286 13.8002 0.928571 13.8002C0.714286 13.8002 0.542857 13.9716 0.542857 14.1859V30.1287C0.542857 31.5002 1.65714 32.5716 2.98571 32.5716H12.8V35.2287C11.4286 35.4859 10.4 36.6002 10.2286 37.9716H6.02857C5.81429 37.9716 5.64286 38.143 5.64286 38.3573C5.64286 38.5716 5.81429 38.743 6.02857 38.743H39.5429C39.7571 38.743 39.9286 38.5716 39.9286 38.3573C39.9286 38.143 39.7143 37.9287 39.5 37.9287ZM36.6714 30.0859C36.6714 30.4716 36.5429 30.8145 36.3286 31.1145V27.5145H36.6714V30.0859ZM24.0286 35.143H13.5714V32.5716H24.0286V35.143ZM34.8286 8.95732C33.8 8.95732 32.9857 8.14304 32.9857 7.11447V6.64304H36.6714V7.11447C36.6714 8.14304 35.8571 8.95732 34.8286 8.95732ZM7.27143 3.12875H10.4857L9.88572 5.87161H6.28572C6.32857 5.82875 7.35714 2.91447 7.27143 3.12875ZM32.8571 5.87161L31.5286 3.12875H34.6571L36.3714 5.87161H32.8571ZM30.6286 3.12875L31.9571 5.87161H28.4L27.4571 3.12875H30.6286ZM26.6 3.12875L27.5429 5.87161H23.9429L23.4286 3.12875H26.6ZM22.5714 3.12875L23.1286 5.87161H19.5286L19.3571 3.12875H22.5714ZM18.5429 3.12875L18.7143 5.87161H15.1143L15.3286 3.12875H18.5429ZM14.3 5.87161H10.7L11.3 3.12875H14.5143L14.3 5.87161ZM5.42857 5.87161H1.91429L3.28571 3.12875H6.45714C6.41429 3.17161 5.38572 6.04304 5.42857 5.87161ZM6.11429 6.64304H9.8V7.11447C9.8 7.62875 9.62857 8.05732 9.24286 8.40018C8.9 8.74304 8.42857 8.95732 7.95714 8.95732C6.92857 8.95732 6.11429 8.14304 6.11429 7.11447V6.64304ZM10.6143 6.64304H14.3V7.11447C14.3 8.14304 13.4857 8.95732 12.4571 8.95732C11.4286 8.95732 10.6143 8.14304 10.6143 7.11447V6.64304ZM15.0714 6.64304H18.7571V7.11447C18.7571 8.14304 17.9429 8.95732 16.9143 8.95732C15.8857 8.95732 15.0714 8.14304 15.0714 7.11447V6.64304ZM19.5714 6.64304H23.2571V7.11447C23.2571 8.14304 22.4429 8.95732 21.4143 8.95732C20.3857 8.95732 19.5714 8.14304 19.5714 7.11447V6.64304ZM24.0286 6.64304H27.7143V7.11447C27.7143 8.14304 26.9 8.95732 25.8714 8.95732C24.8429 8.95732 24.0286 8.14304 24.0286 7.11447V6.64304ZM28.5286 6.64304H32.2143V7.11447C32.2143 8.14304 31.4 8.95732 30.3714 8.95732C29.3429 8.95732 28.5286 8.14304 28.5286 7.11447V6.64304ZM2.6 1.07161H35.3429C36.0714 1.07161 36.6714 1.67161 36.6714 2.40018V4.88589L35.2143 2.52875C35.1286 2.40018 35 2.35732 34.8714 2.35732C28.4857 2.35732 10.3571 2.35732 3.02857 2.35732C2.85714 2.35732 2.72857 2.44304 2.68571 2.57161L1.31429 5.27161V2.40018C1.31429 1.67161 1.91429 1.07161 2.6 1.07161ZM1.65714 7.11447V6.64304H5.34286V7.11447C5.34286 8.14304 4.52857 8.95732 3.5 8.95732C2.47143 8.95732 1.65714 8.14304 1.65714 7.11447ZM3.37143 9.77161H3.5C4.18571 9.77161 4.87143 9.51446 5.38572 9.00018C5.51429 8.87161 5.64286 8.70018 5.77143 8.52875C6.24286 9.25732 7.05714 9.77161 8 9.77161C8.9 9.77161 9.75714 9.30018 10.2286 8.52875C10.7 9.25732 11.5143 9.77161 12.4571 9.77161C13.3571 9.77161 14.2143 9.34304 14.6857 8.52875C15.1571 9.25732 15.9714 9.77161 16.9143 9.77161C17.8143 9.77161 18.6714 9.34304 19.1429 8.52875C19.6143 9.25732 20.4286 9.77161 21.3714 9.77161C22.2714 9.77161 23.1286 9.34304 23.6 8.52875C24.0714 9.25732 24.8857 9.77161 25.8286 9.77161C26.5143 9.77161 27.2 9.51446 27.7143 9.00018C27.8429 8.87161 27.9714 8.70018 28.1 8.52875C28.5714 9.25732 29.3857 9.77161 30.3286 9.77161C31.2286 9.77161 32.0857 9.30018 32.5571 8.52875C32.9857 9.21446 33.7143 9.68589 34.5714 9.77161V26.0573H24.9286C24.5429 26.0573 24.2429 26.3573 24.2 26.743H3.37143V9.77161ZM1.31429 30.0859V27.5145H24.2V31.7145H2.94286C2.04286 31.7573 1.31429 30.9859 1.31429 30.0859ZM13.3571 35.9145H24.1571V36.643C24.1571 37.1145 24.3286 37.5859 24.6286 37.9287H11C11.1714 36.8145 12.1571 35.9145 13.3571 35.9145Z" fill="#4441AA"/>
<path d="M4.3147 37.9287H3.67185C3.45756 37.9287 3.28613 38.1001 3.28613 38.3144C3.28613 38.5287 3.45756 38.7001 3.67185 38.7001H4.3147C4.52899 38.7001 4.70042 38.5287 4.70042 38.3144C4.70042 38.1001 4.52899 37.9287 4.3147 37.9287Z" fill="#4441AA"/>
<path d="M42.1145 37.9287H41.0859C40.8716 37.9287 40.7002 38.1001 40.7002 38.3144C40.7002 38.5287 40.8716 38.7001 41.0859 38.7001H42.1145C42.3288 38.7001 42.5002 38.5287 42.5002 38.3144C42.5002 38.1001 42.3288 37.9287 42.1145 37.9287Z" fill="#4441AA"/>
<path d="M18.7998 28.2856C17.9427 28.2856 17.2998 28.9714 17.2998 29.7856C17.2998 30.6428 17.9855 31.2856 18.7998 31.2856C19.6569 31.2856 20.2998 30.5999 20.2998 29.7856C20.2998 28.9285 19.6141 28.2856 18.7998 28.2856ZM18.7998 30.5142C18.4141 30.5142 18.0712 30.1714 18.0712 29.7856C18.0712 29.3999 18.4141 29.0571 18.7998 29.0571C19.1855 29.0571 19.5284 29.3999 19.5284 29.7856C19.5284 30.1714 19.1855 30.5142 18.7998 30.5142Z" fill="#4441AA"/>
<path d="M11.2142 21.9004H7.22849C7.0142 21.9004 6.84277 22.0718 6.84277 22.2861C6.84277 22.5004 7.0142 22.6718 7.22849 22.6718H11.2142C11.4285 22.6718 11.5999 22.5004 11.5999 22.2861C11.5999 22.0718 11.4285 21.9004 11.2142 21.9004Z" fill="#4441AA"/>
<path d="M11.2142 23.7002H7.22849C7.0142 23.7002 6.84277 23.8716 6.84277 24.0859C6.84277 24.3002 7.0142 24.4716 7.22849 24.4716H11.2142C11.4285 24.4716 11.5999 24.3002 11.5999 24.0859C11.5999 23.8716 11.4285 23.7002 11.2142 23.7002Z" fill="#4441AA"/>
<path d="M20.7718 21.9004H16.7861C16.5718 21.9004 16.4004 22.0718 16.4004 22.2861C16.4004 22.5004 16.5718 22.6718 16.7861 22.6718H20.7718C20.9861 22.6718 21.1575 22.5004 21.1575 22.2861C21.1575 22.0718 21.029 21.9004 20.7718 21.9004Z" fill="#4441AA"/>
<path d="M20.7718 23.7002H16.7861C16.5718 23.7002 16.4004 23.8716 16.4004 24.0859C16.4004 24.3002 16.5718 24.4716 16.7861 24.4716H20.7718C20.9861 24.4716 21.1575 24.3002 21.1575 24.0859C21.1575 23.8716 21.029 23.7002 20.7718 23.7002Z" fill="#4441AA"/>
<path d="M30.6712 21.9004H26.6855C26.4712 21.9004 26.2998 22.0718 26.2998 22.2861C26.2998 22.5004 26.4712 22.6718 26.6855 22.6718H30.6712C30.8855 22.6718 31.0569 22.5004 31.0569 22.2861C31.0569 22.0718 30.8855 21.9004 30.6712 21.9004Z" fill="#4441AA"/>
<path d="M30.6712 23.7002H26.6855C26.4712 23.7002 26.2998 23.8716 26.2998 24.0859C26.2998 24.3002 26.4712 24.4716 26.6855 24.4716H30.6712C30.8855 24.4716 31.0569 24.3002 31.0569 24.0859C31.0569 23.8716 30.8855 23.7002 30.6712 23.7002Z" fill="#4441AA"/>
<path d="M11.7289 11.0146H6.88608C6.11465 11.0146 5.51465 11.6146 5.51465 12.3861V19.4575C5.51465 20.2289 6.11465 20.8289 6.88608 20.8289H11.7289C12.5004 20.8289 13.1004 20.2289 13.1004 19.4575V12.3861C13.1004 11.6146 12.4575 11.0146 11.7289 11.0146ZM12.2861 19.4575C12.2861 19.7575 12.0289 20.0147 11.7289 20.0147H6.88608C6.58608 20.0147 6.32893 19.7575 6.32893 19.4575V12.3861C6.32893 12.0861 6.58608 11.8289 6.88608 11.8289H11.7289C12.0289 11.8289 12.2861 12.0861 12.2861 12.3861V19.4575Z" fill="#4441AA"/>
<path d="M21.4145 11.0146H16.5716C15.8002 11.0146 15.2002 11.6146 15.2002 12.3861V19.4575C15.2002 20.2289 15.8002 20.8289 16.5716 20.8289H21.4145C22.1859 20.8289 22.7859 20.2289 22.7859 19.4575V12.3861C22.7859 11.6146 22.143 11.0146 21.4145 11.0146ZM21.9716 19.4575C21.9716 19.7575 21.7145 20.0147 21.4145 20.0147H16.5716C16.2716 20.0147 16.0145 19.7575 16.0145 19.4575V12.3861C16.0145 12.0861 16.2716 11.8289 16.5716 11.8289H21.4145C21.7145 11.8289 21.9716 12.0861 21.9716 12.3861V19.4575Z" fill="#4441AA"/>
<path d="M26.2572 20.8289H31.1C31.8715 20.8289 32.4715 20.2289 32.4715 19.4575V12.3861C32.4715 11.6146 31.8715 11.0146 31.1 11.0146H26.2572C25.4857 11.0146 24.8857 11.6146 24.8857 12.3861V19.4575C24.8857 20.2289 25.4857 20.8289 26.2572 20.8289ZM25.7 12.3861C25.7 12.0861 25.9572 11.8289 26.2572 11.8289H31.1C31.4 11.8289 31.6572 12.0861 31.6572 12.3861V19.4575C31.6572 19.7575 31.4 20.0147 31.1 20.0147H26.2572C25.9572 20.0147 25.7 19.7575 25.7 19.4575V12.3861Z" fill="#4441AA"/>
<path d="M33.7998 28.2001H34.2283C34.4426 28.2001 34.6141 28.0287 34.6141 27.8144C34.6141 27.6001 34.4426 27.4287 34.1855 27.4287H32.5569C32.3426 27.4287 32.1712 27.6001 32.1712 27.8144C32.1712 28.0287 32.3426 28.2001 32.5569 28.2001H32.9855V29.5716C32.9855 31.0716 31.7426 32.3144 30.2426 32.3144C28.7426 32.3144 27.4998 31.0716 27.4998 29.5716V28.2001H27.9283C28.1426 28.2001 28.3141 28.0287 28.3141 27.8144C28.3141 27.6001 28.1426 27.4287 27.9283 27.4287H26.2998C26.0855 27.4287 25.9141 27.6001 25.9141 27.8144C25.9141 28.0287 26.0855 28.2001 26.2998 28.2001H26.7283V29.5716C26.7283 31.543 28.3141 33.1287 30.2855 33.1287C32.2569 33.1287 33.8426 31.543 33.8426 29.5716V28.2001H33.7998Z" fill="#4441AA"/>
<path d="M27.8427 34.3716C27.4141 34.3716 27.0713 34.7144 27.0713 35.143V35.743C27.0713 36.1716 27.4141 36.5144 27.8427 36.5144H32.6427C33.0713 36.5144 33.4141 36.1716 33.4141 35.743V35.143C33.4141 34.7144 33.0713 34.3716 32.6427 34.3716H27.8427ZM32.5999 35.743H27.8856V35.1859H32.6427V35.743H32.5999Z" fill="#4441AA"/>
</svg>
