<svg width="43" height="39" viewBox="0 0 43 39" fill="none" xmlns="../../../www.w3.org/2000/svg">
<path d="M39.6308 37.3253H39.5872L41.3784 33.2622C41.3784 33.2185 41.4221 33.1748 41.4221 33.1311C41.4221 14.7379 41.4221 14.6942 41.4221 14.7379C41.4221 13.9515 40.8105 13.3398 40.024 13.3398C38.4512 13.3398 38.9318 13.3398 37.359 13.3398C36.5726 13.3398 35.9609 13.9515 35.9609 14.7379V33.1311C35.9609 33.1748 35.9609 33.2185 36.0046 33.2622L37.7959 37.3253H34.9998V34.4418C34.9998 34.1796 34.825 34.0049 34.5629 34.0049C34.3007 34.0049 34.126 34.1796 34.126 34.4418V37.3253H8.48035V17.8835C8.48035 17.6214 8.30559 17.4466 8.04345 17.4466C7.78132 17.4466 7.60656 17.6214 7.60656 17.8835V37.2816H3.06287C2.80073 37.2816 2.62598 37.4563 2.62598 37.7185C2.62598 37.9806 2.80073 38.1554 3.06287 38.1554H39.5872C39.8493 38.1554 40.024 37.9806 40.024 37.7185C40.024 37.4563 39.8493 37.3253 39.6308 37.3253ZM40.5483 18.5826C40.5046 18.5826 36.66 18.5826 36.8347 18.5826V17.6651H40.5483V18.5826ZM36.8347 32.6505V19.4563C36.8784 19.4563 40.7231 19.4563 40.5483 19.4563V32.6505C40.4609 32.6505 36.66 32.6505 36.8347 32.6505ZM37.359 14.1699C37.4027 14.1699 40.0677 14.1699 40.024 14.1699C40.2862 14.1699 40.5483 14.3884 40.5483 14.6942V16.7913H36.8347V14.6942C36.8347 14.3884 37.0532 14.1699 37.359 14.1699ZM40.2862 33.5243L38.6697 37.1942L37.0532 33.5243C37.0969 33.5243 40.5046 33.5243 40.2862 33.5243Z" fill="#2C86FF"/>
<path d="M1.22772 37.3252H0.52869C0.266554 37.3252 0.0917969 37.5 0.0917969 37.7621C0.0917969 38.0242 0.266554 38.199 0.52869 38.199H1.22772C1.48986 38.199 1.66461 38.0242 1.66461 37.7621C1.66461 37.5 1.48986 37.3252 1.22772 37.3252Z" fill="#2C86FF"/>
<path d="M42.4703 37.3252H41.3344C41.0722 37.3252 40.8975 37.5 40.8975 37.7621C40.8975 38.0242 41.0722 38.199 41.3344 38.199H42.4703C42.7324 38.199 42.9072 38.0242 42.9072 37.7621C42.9072 37.5 42.6887 37.3252 42.4703 37.3252Z" fill="#2C86FF"/>
<path d="M0.8783 12.1166H7.60646V15.0438C7.60646 15.3059 7.78122 15.4807 8.04335 15.4807C8.30549 15.4807 8.48024 15.3059 8.48024 15.0438C8.48024 12.7282 8.48024 6.96123 8.48024 4.82045C8.48024 3.59715 7.91228 2.46123 6.99481 1.67482H30.9802C32.7278 1.67482 34.1259 3.07288 34.1259 4.82045V31.8205C34.1259 32.0826 34.3006 32.2573 34.5628 32.2573C34.8249 32.2573 34.9997 32.0826 34.9997 31.8205V4.86414C34.9997 2.63599 33.2084 0.844727 30.9802 0.844727H4.46082C2.23267 0.844727 0.441406 2.63599 0.441406 4.86414V11.7234C0.441406 11.9418 0.659853 12.1166 0.8783 12.1166ZM1.31519 4.86414C1.31519 3.11657 2.71325 1.71851 4.46082 1.71851C6.16471 1.71851 7.60646 3.11657 7.60646 4.86414V11.2865H1.31519V4.86414Z" fill="#2C86FF"/>
<path d="M32.2909 15.4807C32.2909 12.4224 29.888 9.93214 26.8297 9.80107C26.9171 9.36417 27.0045 8.92728 27.0045 8.49039C27.0045 5.34476 24.4268 2.76709 21.2812 2.76709C18.1356 2.76709 15.5579 5.34476 15.5579 8.49039C15.5579 8.92728 15.6016 9.36417 15.7327 9.80107C12.7181 9.93214 10.2715 12.4224 10.2715 15.4807C10.2715 18.5389 12.6744 21.0292 15.7327 21.1603C15.6453 21.5972 15.5579 22.0341 15.5579 22.5147C15.5579 25.6603 18.1356 28.238 21.2812 28.238C24.4268 28.238 27.0045 25.6603 27.0045 22.5147C27.0045 22.0778 26.9608 21.6409 26.8297 21.1603C29.8443 21.0729 32.2909 18.5389 32.2909 15.4807ZM22.3734 13.1651C22.3297 13.2088 22.3297 13.2088 22.3734 13.1651C22.3297 13.1651 22.3297 13.1651 22.3734 13.1651C23.0288 11.8982 24.2084 11.0681 25.5191 10.7622H25.5628V10.8059C24.8637 11.9855 23.7278 12.8593 22.3734 13.1651ZM25.5191 20.1991C24.1647 19.937 23.0288 19.0632 22.3297 17.8399C22.3297 17.8399 22.3297 17.8399 22.3297 17.7962C23.6404 18.102 24.82 18.9321 25.5191 20.1991ZM17.087 20.1991C17.0433 20.1991 17.0433 20.1991 17.087 20.1991C17.7424 18.9758 18.8783 18.102 20.2327 17.7962H20.2763V17.8399C19.5773 19.0632 18.4414 19.8933 17.087 20.1991ZM17.0433 10.7622C18.3977 11.0681 19.5773 11.9418 20.2763 13.1651C18.9657 12.903 17.7424 12.0729 17.0433 10.7622ZM21.2812 3.64088C23.9462 3.64088 26.1307 5.82534 26.1307 8.49039C26.1307 8.92728 26.0433 9.40787 25.9123 9.84476C23.9026 10.0632 22.0676 11.3739 21.2812 13.3399C20.4948 11.4176 18.7035 10.0632 16.6501 9.84476C16.5191 9.40787 16.4317 8.92728 16.4317 8.49039C16.4317 5.78165 18.6161 3.64088 21.2812 3.64088ZM11.189 15.4807C11.189 12.8156 13.3734 10.6312 16.0385 10.6312C16.8686 12.5972 18.6598 13.9079 20.6695 14.1263C20.8006 14.5632 20.888 15.0438 20.888 15.4807C20.888 15.9176 20.8006 16.3982 20.6695 16.835C20.6259 16.835 20.6259 16.835 20.5822 16.835C18.4851 17.0972 16.7812 18.4516 16.0385 20.2865C13.3297 20.3302 11.189 18.1894 11.189 15.4807ZM21.2812 27.3642C18.6161 27.3642 16.4317 25.1797 16.4317 22.5147C16.4317 22.0778 16.5191 21.5972 16.6501 21.1603C18.6598 20.9418 20.4948 19.6312 21.2812 17.6651C22.0239 19.4564 23.6404 20.8108 25.6938 21.1166C25.7375 21.1166 25.7812 21.1166 25.8686 21.1603H25.956C26.087 21.5972 26.1744 22.0778 26.1744 22.5147C26.1307 25.2234 23.9462 27.3642 21.2812 27.3642ZM26.5676 20.3302C26.5676 20.2865 26.5239 20.2865 26.5239 20.2428C25.6938 18.3205 23.9026 17.0535 21.9365 16.835C21.8055 16.3982 21.7181 15.9176 21.7181 15.4807C21.7181 15.0438 21.8055 14.5632 21.9365 14.1263C24.0336 13.9079 25.7812 12.5535 26.5676 10.6312C29.2327 10.6312 31.4171 12.8156 31.4171 15.4807C31.4171 18.1894 29.2327 20.3302 26.5676 20.3302Z" fill="#2C86FF"/>
<path d="M29.8005 30.1602H18.5287C18.2666 30.1602 18.0918 30.3349 18.0918 30.5971C18.0918 30.8592 18.2666 31.0339 18.5287 31.0339H29.8005C30.0627 31.0339 30.2374 30.8592 30.2374 30.5971C30.2374 30.3349 30.0627 30.1602 29.8005 30.1602Z" fill="#2C86FF"/>
<path d="M29.8006 34.3545H18.7035C18.4414 34.3545 18.2666 34.5293 18.2666 34.7914C18.2666 35.0535 18.4414 35.2283 18.7035 35.2283H29.8443C30.1064 35.2283 30.2812 35.0535 30.2812 34.7914C30.2812 34.5293 30.0627 34.3545 29.8006 34.3545Z" fill="#2C86FF"/>
<path d="M15.8633 29.2865C15.8633 29.0244 15.6885 28.8496 15.4264 28.8496H10.7953C10.5332 28.8496 10.3584 29.0244 10.3584 29.2865V31.8205C10.3584 32.0826 10.5332 32.2574 10.7953 32.2574H15.4264C15.6885 32.2574 15.8633 32.0826 15.8633 31.8205V29.2865ZM14.9895 31.4273H11.2322V29.7671H14.9895V31.4273Z" fill="#2C86FF"/>
<path d="M15.4264 33.0874H10.7953C10.5332 33.0874 10.3584 33.3058 10.3584 33.5243V36.0583C10.3584 36.3204 10.5332 36.4952 10.7953 36.4952H13.1108C15.8633 36.4952 15.8633 36.4952 15.8633 36.0583V33.5243C15.8633 33.2622 15.6885 33.0874 15.4264 33.0874ZM14.9895 35.6214C14.1594 35.6214 12.3244 35.6214 11.2322 35.6214V33.9175H14.9895V35.6214Z" fill="#2C86FF"/>
</svg>
