<svg width="35" height="35" viewBox="0 0 35 35" fill="none" xmlns="http://www.w3.org/2000/svg">
<g clip-path="url(#clip0_1_280)">
<path d="M15.6452 3.03357L25.9853 6.25045C26.2737 6.3401 26.5257 6.5192 26.7047 6.76161C26.8836 7.00401 26.9801 7.29702 26.9799 7.59787V10.0881H29.8136C30.1894 10.0881 30.5497 10.2368 30.8155 10.5014C31.0812 10.766 31.2304 11.1248 31.2304 11.499V14.3209H12.8116V11.499C12.8116 11.1248 12.9608 10.766 13.2265 10.5014C13.4923 10.2368 13.8526 10.0881 14.2284 10.0881H24.1463V8.63489L15.6452 5.98802L7.14422 8.63489V19.0813C7.14402 19.9451 7.34293 20.7974 7.72564 21.5726C8.10835 22.3478 8.66464 23.0251 9.35165 23.5525L9.61943 23.7444L15.6452 27.8374L21.0037 24.1973H14.2284C13.8526 24.1973 13.4923 24.0486 13.2265 23.784C12.9608 23.5194 12.8116 23.1605 12.8116 22.7863V17.1427H31.2304V22.7863C31.2304 23.1605 31.0812 23.5194 30.8155 23.784C30.5497 24.0486 30.1894 24.1973 29.8136 24.1973L25.2514 24.1987C24.7031 24.9182 24.0372 25.5531 23.2678 26.0752L15.6452 31.2518L8.02266 26.0766C6.87859 25.2998 5.94239 24.2565 5.29545 23.0374C4.6485 21.8182 4.3104 20.4602 4.31055 19.0813V7.59787C4.31072 7.29726 4.4073 7.00457 4.58621 6.76245C4.76512 6.52033 5.01701 6.34144 5.30517 6.25186L15.6452 3.03357Z" fill="#68C985"/>
</g>
<defs>
<clipPath id="clip0_1_280">
<rect x="0.0605469" y="0.21106" width="34.0041" height="33.8619" rx="4.85772" fill="white"/>
</clipPath>
</defs>
</svg>
