<svg width="30" height="30" viewBox="0 0 30 30" fill="none" xmlns="../../../www.w3.org/2000/svg">
<g clip-path="url(#clip0_159_14369)">
<path d="M18.3725 18.1153L10.9393 20.8207L4.62666 3.47681C4.40529 2.86861 4.71889 2.19619 5.32703 1.97482L10.5578 0.0709947C11.166 -0.150372 11.8384 0.163221 12.0598 0.771365L18.3725 18.1153Z" fill="#53D8E3"/>
<path d="M12.0597 0.771372C11.8383 0.163169 11.1659 -0.150366 10.5577 0.0710012L7.94238 1.02292L14.6559 19.4681L18.3724 18.1154L12.0597 0.771372Z" fill="#18A8C9"/>
<path d="M9.94572 3.0998C9.48957 3.2658 9.25443 3.77018 9.42042 4.22633C9.55033 4.58322 9.88736 4.80488 10.2464 4.80488C10.3462 4.80488 10.4477 4.78777 10.5469 4.75162L13.1622 3.79971L12.561 2.14795L9.94572 3.0998Z" fill="#3555A2"/>
<path d="M10.0473 6.8043C9.59113 6.97029 9.35599 7.47467 9.52199 7.93082C9.65189 8.28771 9.98892 8.50937 10.3479 8.50937C10.4478 8.50937 10.5493 8.49227 10.6485 8.45611L14.365 7.10342L13.7638 5.45166L10.0473 6.8043Z" fill="#3555A2"/>
<path d="M12.351 9.70698C11.8948 9.87298 11.6597 10.3774 11.8257 10.8335C11.9556 11.1904 12.2926 11.4121 12.6516 11.4121C12.7515 11.4121 12.853 11.395 12.9522 11.3588L15.5675 10.4069L14.9663 8.75513L12.351 9.70698Z" fill="#3555A2"/>
<path d="M11.9263 14.538C12.0562 14.895 12.3932 15.1166 12.7522 15.1166C12.8521 15.1166 12.9535 15.0994 13.0527 15.0633L16.7693 13.7106L16.1681 12.0588L12.4515 13.4115C11.9955 13.5775 11.7603 14.0819 11.9263 14.538Z" fill="#3555A2"/>
<path d="M10.2464 4.80488C10.3463 4.80488 10.4477 4.78777 10.5469 4.75162L13.1623 3.79971L12.561 2.14795L9.94572 3.09986C9.48957 3.26586 9.25443 3.77023 9.42042 4.22639C9.55039 4.58322 9.88742 4.80488 10.2464 4.80488Z" fill="#1B3555"/>
<path d="M14.3646 7.10323L13.7634 5.45142L10.0469 6.80411L10.6481 8.45593L14.3646 7.10323Z" fill="#1B3555"/>
<path d="M11.8247 10.8335C11.9546 11.1904 12.2916 11.4121 12.6507 11.4121C12.7505 11.4121 12.852 11.3949 12.9512 11.3588L15.5665 10.4069L14.9653 8.75513L12.35 9.70704C11.8939 9.87304 11.6587 10.3774 11.8247 10.8335Z" fill="#1B3555"/>
<path d="M13.0523 15.0632L16.7689 13.7104L16.1677 12.0586L12.4512 13.4113L13.0523 15.0632Z" fill="#1B3555"/>
<path d="M24.4884 0.496595C24.4175 0.0403251 23.8713 -0.158483 23.5237 0.145501L18.837 4.2439L14.0273 17.4583L20.6346 19.8631L25.4442 6.6487L24.4884 0.496595Z" fill="#F9D3AB"/>
<path d="M18.8418 4.24512L25.4512 6.64981L20.6418 19.8686L14.0324 17.4639L18.8418 4.24512Z" fill="#FDB91F"/>
<path d="M17.334 18.6562L22.1434 5.43748L25.448 6.63983L20.6387 19.8586L17.334 18.6562Z" fill="#FC8B28"/>
<path d="M24.4884 0.496553C24.453 0.268389 24.2987 0.104619 24.1098 0.0358887L22.1406 5.44632L25.4443 6.64872L24.4884 0.496553Z" fill="#FDBD86"/>
<path d="M24.4885 0.496612C24.4176 0.0403428 23.8713 -0.158466 23.5238 0.14546L22.6719 0.890421L24.6622 1.61487L24.4885 0.496612Z" fill="#3555A2"/>
<path d="M22.9667 5.74698L21.3149 5.14575L16.5164 18.3296C16.5126 18.3399 16.5102 18.3504 16.5068 18.3607L18.1559 18.961C18.16 18.9509 18.1645 18.9411 18.1683 18.9308L22.9667 5.74698Z" fill="#3555A2"/>
<path d="M24.4884 0.496552C24.453 0.268389 24.2987 0.104619 24.1098 0.0358887L23.667 1.25259L24.6621 1.61481L24.4884 0.496552Z" fill="#1B3555"/>
<path d="M18.1681 18.9307L22.9666 5.74688L22.1407 5.44629L17.3311 18.6607L18.1558 18.9609C18.1598 18.9508 18.1643 18.941 18.1681 18.9307Z" fill="#1B3555"/>
<path d="M23.2542 14.7656H7.48828C6.84106 14.7656 6.31641 15.2903 6.31641 15.9375V26.4844C6.31641 28.426 7.89041 30 9.83203 30H20.9105C22.8521 30 24.4261 28.426 24.4261 26.4844V15.9375C24.4261 15.2903 23.9015 14.7656 23.2542 14.7656Z" fill="#68C985"/>
<path d="M23.2541 14.7656H15.3711V30H20.9103C22.8519 30 24.4259 28.426 24.4259 26.4844V15.9375C24.4259 15.2903 23.9013 14.7656 23.2541 14.7656Z" fill="#43A071"/>
</g>
<defs>
<clipPath id="clip0_159_14369">
<rect width="30" height="30" fill="white"/>
</clipPath>
</defs>
</svg>
