<svg width="43" height="39" viewBox="0 0 43 39" fill="none" xmlns="../../../www.w3.org/2000/svg">
<path d="M39.2856 37.7144H30.6284C30.6284 36.1287 29.3856 34.8001 27.7999 34.7144V31.8859H39.5427C40.6141 31.8859 41.4284 31.0287 41.4284 30.0001V2.31442C41.4284 1.28585 40.5713 0.428711 39.5427 0.428711H3.457C2.42843 0.428711 1.57129 1.28585 1.57129 2.31442V5.22871C1.57129 5.48585 1.74272 5.65728 1.99986 5.65728C2.257 5.65728 2.42843 5.48585 2.42843 5.22871V2.31442C2.42843 1.75728 2.89986 1.28585 3.457 1.28585H39.5427C40.0999 1.28585 40.5713 1.75728 40.5713 2.31442V30.0001C40.5713 30.5573 40.0999 31.0287 39.5427 31.0287C17.7284 31.0287 12.4141 31.0287 3.457 31.0287C2.89986 31.0287 2.42843 30.5573 2.42843 30.0001V8.22871C2.42843 7.97157 2.257 7.80014 1.99986 7.80014C1.74272 7.80014 1.57129 7.97157 1.57129 8.22871V30.0001C1.57129 31.0716 2.42843 31.8859 3.457 31.8859H14.7713V34.7144C13.1856 34.843 11.9856 36.1287 11.9427 37.7144H3.41415C3.157 37.7144 2.98557 37.8858 2.98557 38.143C2.98557 38.4001 3.157 38.5716 3.41415 38.5716H39.2856C39.5427 38.5716 39.7141 38.4001 39.7141 38.143C39.7141 37.8858 39.4999 37.7144 39.2856 37.7144ZM26.9427 31.8859V34.7144H15.6284V31.9287H26.9427V31.8859ZM15.0284 35.5716H27.5427C28.7427 35.5716 29.7284 36.5573 29.7284 37.7573H12.8427C12.8427 36.5144 13.8284 35.5716 15.0284 35.5716Z" fill="#D3766A"/>
<path d="M1.61429 37.7144H0.928572C0.671429 37.7144 0.5 37.8858 0.5 38.1429C0.5 38.4001 0.671429 38.5715 0.928572 38.5715H1.61429C1.87143 38.5715 2.04286 38.4001 2.04286 38.1429C2.04286 37.8858 1.87143 37.7144 1.61429 37.7144Z" fill="#D3766A"/>
<path d="M42.0712 37.7144H40.9569C40.6997 37.7144 40.5283 37.8858 40.5283 38.1429C40.5283 38.4001 40.6997 38.5715 40.9569 38.5715H42.0712C42.3283 38.5715 42.4997 38.4001 42.4997 38.1429C42.4997 37.8858 42.2855 37.7144 42.0712 37.7144Z" fill="#D3766A"/>
<path d="M19.8711 28.7571C19.8711 29.5285 20.5139 30.1714 21.2854 30.1714C22.0568 30.1714 22.6997 29.5285 22.6997 28.7571C22.6997 27.9856 22.0568 27.3428 21.2854 27.3428C20.5139 27.3428 19.8711 27.9856 19.8711 28.7571ZM21.8854 28.7571C21.8854 29.0571 21.6282 29.3142 21.3282 29.3142C21.0282 29.3142 20.7711 29.0571 20.7711 28.7571C20.7711 28.4571 21.0282 28.1999 21.3282 28.1999C21.6282 28.1999 21.8854 28.4571 21.8854 28.7571Z" fill="#D3766A"/>
<path d="M39.1997 26.0572V3.0858C39.1997 2.95723 39.1568 2.87151 39.0711 2.7858C38.9854 2.70008 38.8997 2.65723 38.7711 2.65723H4.18541C3.92826 2.65723 3.75684 2.82866 3.75684 3.0858V26.0572C3.75684 26.1858 3.79969 26.2715 3.88541 26.3572C3.97112 26.4429 4.05684 26.4858 4.18541 26.4858H38.7711C39.0283 26.4858 39.1997 26.2715 39.1997 26.0572ZM38.3426 25.6286H4.61398V3.51437H38.3426V25.6286Z" fill="#D3766A"/>
<path d="M24.5427 23.3142H34.5713C35.0427 23.3142 35.4713 23.0999 35.7713 22.7571C36.0713 22.4142 36.1999 21.9428 36.157 21.5142L34.9142 10.4999C34.8713 10.1571 34.5713 9.85707 34.1427 9.85707H32.7713V9.04279C32.7713 7.24279 31.3142 5.78564 29.5142 5.78564C27.7142 5.78564 26.257 7.24279 26.257 9.04279V9.85707H24.8856C24.4999 9.85707 24.157 10.1571 24.1142 10.5428L22.8713 21.5571C22.8285 22.0285 22.957 22.4571 23.257 22.7999C23.6427 23.0999 24.0713 23.3142 24.5427 23.3142ZM27.157 9.04279C27.157 7.71422 28.2285 6.64279 29.557 6.64279C30.8856 6.64279 31.957 7.71422 31.957 9.04279V9.85707H27.157V9.04279ZM23.7713 21.5999L25.0142 10.7142H26.2999V11.9571H25.9142C25.657 11.9571 25.4856 12.1285 25.4856 12.3856C25.4856 12.6428 25.657 12.8142 25.9142 12.8142H27.5856C27.8427 12.8142 28.0142 12.6428 28.0142 12.3856C28.0142 12.1285 27.8427 11.9571 27.5856 11.9571H27.1999V10.7142H31.957V11.9571H31.5713C31.3142 11.9571 31.1427 12.1285 31.1427 12.3856C31.1427 12.6428 31.3142 12.8142 31.5713 12.8142H33.2427C33.4999 12.8142 33.6713 12.6428 33.6713 12.3856C33.6713 12.1285 33.4999 11.9571 33.2427 11.9571H32.857V10.7142H34.1427L35.3856 21.6428C35.4285 21.8571 35.3427 22.0714 35.2142 22.2428C35.0856 22.4142 34.8713 22.4999 34.657 22.4999H24.5427C24.3285 22.4999 24.1142 22.4142 23.9856 22.2428C23.8142 22.0285 23.7713 21.8142 23.7713 21.5999Z" fill="#D3766A"/>
<path d="M7.27135 6.64279H19.0999C19.3571 6.64279 19.5285 6.47136 19.5285 6.21422C19.5285 5.95707 19.3571 5.78564 19.0999 5.78564H7.27135C7.0142 5.78564 6.84277 5.95707 6.84277 6.21422C6.84277 6.47136 7.0142 6.64279 7.27135 6.64279Z" fill="#D3766A"/>
<path d="M7.27135 9.98605H19.0999C19.3571 9.98605 19.5285 9.81462 19.5285 9.55748C19.5285 9.30034 19.3571 9.12891 19.0999 9.12891H7.27135C7.0142 9.12891 6.84277 9.30034 6.84277 9.55748C6.84277 9.81462 7.0142 9.98605 7.27135 9.98605Z" fill="#D3766A"/>
<path d="M7.27134 23.3147H13.2713C13.5285 23.3147 13.6999 23.1432 13.6999 22.8861C13.6999 22.6289 13.5285 22.4575 13.2713 22.4575H7.27134C7.0142 22.4575 6.84277 22.6289 6.84277 22.8861C6.84277 23.1432 7.0142 23.3147 7.27134 23.3147Z" fill="#D3766A"/>
<path d="M19.0575 12.4717H7.44322C7.18608 12.4717 7.01465 12.6431 7.01465 12.9003V19.586C7.01465 19.8431 7.18608 20.0146 7.44322 20.0146H19.1004C19.3575 20.0146 19.5289 19.8431 19.5289 19.586V12.9003C19.4861 12.6431 19.3147 12.4717 19.0575 12.4717ZM18.6289 19.1145H7.87179V13.3288H18.6718V19.1145H18.6289Z" fill="#D3766A"/>
</svg>
